# xmcd
#
# Track frame offsets: 
#        150
#        14762
#        27514
#        44084
#        60160
#        79562
#        97951
#        112704
#        138154
#        157920
#        173899
#        187124
#        203974
#        219162
#        235912
#        254278
#
# Disc length: 3614 seconds
#
# Revision: 2
# Processed by: cddbd v1.5.2PL0 Copyright (c) Steve Scherf et al.
# Submitted via: ExactAudioCopy v0.95b4
#
DISCID=ce0e1c10
DTITLE=Brooks and Dunn - Hillbilly Deluxe
DYEAR=2005
DGENRE=Country
TTITLE0=Play Something Country
TTITLE1=She's About As Lonely as I'm Going to Let Her Get
TTITLE2=My Heart's Not a Hotel
TTITLE3=Whiskey, Do My Talkin'
TTITLE4=Hillbilly Deluxe
TTITLE5=One More Roll of the Dice
TTITLE6=Just Another Neon Night
TTITLE7=Believe
TTITLE8=Building Bridges
TTITLE9=Her West Was Wilder
TTITLE10=I May Never Get Over You
TTITLE11=She Likes to Get Out of Town
TTITLE12=Again
TTITLE13=It Ain't Me If It Ain't You
TTITLE14=Sweet Mystery
TTITLE15=Down By the River
EXTD=YEAR: 2005 ID3G: 2
EXTT0=
EXTT1=
EXTT2=
EXTT3=
EXTT4=
EXTT5=
EXTT6=
EXTT7=
EXTT8=
EXTT9=
EXTT10=
EXTT11=
EXTT12=
EXTT13=
EXTT14=
EXTT15=
PLAYORDER=
